<svg xmlns="http://www.w3.org/2000/svg" width="900" height="610" viewBox="0 0 900 610"><rect width="900" height="610" fill="white"/><g font-family="Arial,sans-serif" fill="#222"><text x="30" y="35" font-size="25" font-weight="bold">Mushroom LED keyring</text><text x="30" y="65" font-size="18">2 × CR2032 in series = 6 V · 6 parallel branches · 12 LEDs</text><g stroke="#222" stroke-width="3" fill="none"><path d="M100 120H160M160 120l40 -22M205 120H280V475M720 120V545M720 545H100"/><path d="M100 120V285M100 324V545"/><path d="M80 285H120M89 298H111M80 311H120M89 324H111"/></g><text x="130" y="91" font-size="16">On/off switch</text><text x="45" y="264" font-size="16">+</text><text x="45" y="347" font-size="16">−</text><text x="305" y="110" font-size="16">+6 V</text><text x="735" y="550" font-size="16">0 V</text><g stroke="#222" stroke-width="2.5" fill="none"><path d="M280 150H340M410 150H480M500 150H585M605 150H720"/><rect x="340" y="141" width="70" height="18"/><path d="M480 140l20 10 -20 10zM502 138v24M585 140l20 10 -20 10zM607 138v24"/><path stroke="#548b33" d="M493 133l11 -11m-6 0h6v6M504 133l11 -11m-6 0h6v6M598 133l11 -11m-6 0h6v6M609 133l11 -11m-6 0h6v6"/></g><text x="348" y="179" font-size="15">1 kΩ</text><text x="740" y="155" fill="#548b33" font-size="17">Green pair</text><circle cx="280" cy="150" r="4"/><circle cx="720" cy="150" r="4"/><g stroke="#222" stroke-width="2.5" fill="none"><path d="M280 215H340M410 215H480M500 215H585M605 215H720"/><rect x="340" y="206" width="70" height="18"/><path d="M480 205l20 10 -20 10zM502 203v24M585 205l20 10 -20 10zM607 203v24"/><path stroke="#548b33" d="M493 198l11 -11m-6 0h6v6M504 198l11 -11m-6 0h6v6M598 198l11 -11m-6 0h6v6M609 198l11 -11m-6 0h6v6"/></g><text x="348" y="244" font-size="15">1 kΩ</text><text x="740" y="220" fill="#548b33" font-size="17">Green pair</text><circle cx="280" cy="215" r="4"/><circle cx="720" cy="215" r="4"/><g stroke="#222" stroke-width="2.5" fill="none"><path d="M280 280H340M410 280H480M500 280H585M605 280H720"/><rect x="340" y="271" width="70" height="18"/><path d="M480 270l20 10 -20 10zM502 268v24M585 270l20 10 -20 10zM607 268v24"/><path stroke="#548b33" d="M493 263l11 -11m-6 0h6v6M504 263l11 -11m-6 0h6v6M598 263l11 -11m-6 0h6v6M609 263l11 -11m-6 0h6v6"/></g><text x="348" y="309" font-size="15">1 kΩ</text><text x="740" y="285" fill="#548b33" font-size="17">Green pair</text><circle cx="280" cy="280" r="4"/><circle cx="720" cy="280" r="4"/><g stroke="#222" stroke-width="2.5" fill="none"><path d="M280 345H340M410 345H480M500 345H585M605 345H720"/><rect x="340" y="336" width="70" height="18"/><path d="M480 335l20 10 -20 10zM502 333v24M585 335l20 10 -20 10zM607 333v24"/><path stroke="#548b33" d="M493 328l11 -11m-6 0h6v6M504 328l11 -11m-6 0h6v6M598 328l11 -11m-6 0h6v6M609 328l11 -11m-6 0h6v6"/></g><text x="348" y="374" font-size="15">1 kΩ</text><text x="740" y="350" fill="#548b33" font-size="17">Green pair</text><circle cx="280" cy="345" r="4"/><circle cx="720" cy="345" r="4"/><g stroke="#222" stroke-width="2.5" fill="none"><path d="M280 410H340M410 410H480M500 410H585M605 410H720"/><rect x="340" y="401" width="70" height="18"/><path d="M480 400l20 10 -20 10zM502 398v24M585 400l20 10 -20 10zM607 398v24"/><path stroke="#c99a00" d="M493 393l11 -11m-6 0h6v6M504 393l11 -11m-6 0h6v6M598 393l11 -11m-6 0h6v6M609 393l11 -11m-6 0h6v6"/></g><text x="348" y="439" font-size="15">1 kΩ</text><text x="740" y="415" fill="#c99a00" font-size="17">Yellow pair</text><circle cx="280" cy="410" r="4"/><circle cx="720" cy="410" r="4"/><g stroke="#222" stroke-width="2.5" fill="none"><path d="M280 475H340M410 475H480M500 475H585M605 475H720"/><rect x="340" y="466" width="70" height="18"/><path d="M480 465l20 10 -20 10zM502 463v24M585 465l20 10 -20 10zM607 463v24"/><path stroke="#c99a00" d="M493 458l11 -11m-6 0h6v6M504 458l11 -11m-6 0h6v6M598 458l11 -11m-6 0h6v6M609 458l11 -11m-6 0h6v6"/></g><text x="348" y="504" font-size="15">1 kΩ</text><text x="740" y="480" fill="#c99a00" font-size="17">Yellow pair</text><circle cx="280" cy="475" r="4"/><circle cx="720" cy="475" r="4"/></g></svg>